{"title":"Mountains.May.Depart.2015.720p.BRRip.x264.AC3.HORiZON-ArtSubs","uid":14793419,"size":1875566863,"categoryP":"video","categoryS":"movies","magnet":"?xt=urn:btih:b4cae2a4cd7d465c5ec1055b16665fe861647c97&amp;dn=Mountains.May.Depart.2015.720p.BRRip.x264.AC3.HORiZON-ArtSubs&amp;tr=udp%3A%2F%2Ftracker.leechers-paradise.org%3A6969&amp;tr=udp%3A%2F%2Fzer0day.ch%3A1337&amp;tr=udp%3A%2F%2Fopen.demonii.com%3A1337&amp;tr=udp%3A%2F%2Ftracker.coppersurfer.tk%3A6969&amp;tr=udp%3A%2F%2Fexodus.desync.com%3A6969","seeders":16,"leechers":3,"uploader":"noriegaRJ","files":1,"time":1465080081,"description":"Title: Shan he gu ren aka Mountains May Depart\r\n\r\nRelease: Mountains.May.Depart.2015.720p.BRRip.x264.AC3.HORiZON-ArtSubs\r\n\r\n\r\nIMDB Link:                                                           \nhttp://www.imdb.com/title/tt3740778/\r\n\r\n\r\nPlot: China, 1999. Childhood friends Liangzi and Zhang are both in love with Tao, the town beauty. Tao eventually decides to marry the wealthier Zhang. They soon have a son he names Dollar... From China to Australia, the lives, loves, hopes and disillusions of a family over two generations in a society changing at breakneck speed.\r\n\r\n\r\nBRAZILIAN PORTUGUESE SUBTITLE INSIDE MKV FILE.\r\n\r\n\r\n\r\nGeneral\r\nComplete name                            : Mountains.May.Depart.2015.720p.BRRip.x264.AC3.HORiZON-ArtSubs\r\nFormat                                   : Matroska\r\nFormat version                           : Version 2\r\nFile size                                : 1.75 GiB\r\nDuration                                 : 2h 6mn\r\nOverall bit rate                         : 1 982 Kbps\r\nWriting application                      : HandBrake 0.9.5\r\nWriting library                          : libmkv 0.6.4.1\r\n\r\nVideo\r\nID                                       : 1\r\nFormat                                   : AVC\r\nFormat/Info                              : Advanced Video Codec\r\nFormat profile                           :   \r\nFormat settings, CABAC                   : Yes\r\nFormat settings, ReFrames                : 4 frames\r\nCodec ID                                 : V_MPEG4/ISO/AVC\r\nDuration                                 : 2h 6mn\r\nBit rate                                 : 1 351 Kbps\r\nWidth                                    : 1 280 pixels\r\nHeight                                   : 688 pixels\r\nDisplay aspect ratio                     : 1.85:1\r\nFrame rate mode                          : Constant\r\nFrame rate                               : 23.976 fps\r\nColor space                              : YUV\r\nChroma subsampling                       : 4:2:0\r\nBit depth                                : 8 bits\r\nScan type                                : Progressive\r\nBits/(Pixel*Frame)                       : 0.064\r\nStream size                              : 1.15 GiB (66%)\r\nWriting library                          : x264 core 112\r\nLanguage                                 : English\r\nDefault                                  : Yes\r\nForced                                   : No\r\nColor primaries                          : BT.709\r\nTransfer characteristics                 : BT.709\r\nMatrix coefficients                      : BT.709\r\n\r\nAudio\r\nID                                       : 2\r\nFormat                                   : AC-3\r\nFormat/Info                              : Audio Coding 3\r\nMode extension                           : CM (complete main)\r\nFormat settings, Endianness              : Big\r\nCodec ID                                 : A_AC3\r\nDuration                                 : 2h 6mn\r\nBit rate mode                            : Constant\r\nBit rate                                 : 640 Kbps\r\nChannel count                            : 6 channels\r\nChannel positions                        : Front: L C R, Side: L R, LFE\r\nSampling rate                            : 48.0 KHz\r\nBit depth                                : 16 bits\r\nCompression mode                         : Lossy\r\nStream size                              : 578 MiB (32%)\r\nLanguage                                 : Chinese\r\nDefault                                  : Yes\r\nForced                                   : No\r\n\r\nText\r\nID                                       : 3\r\nFormat                                   : UTF-8\r\nCodec ID                                 : S_TEXT/UTF8\r\nCodec ID/Info                            : UTF-8 Plain Text\r\nLanguage                                 : Portuguese\r\nDefault                                  : No\r\nForced                                   : No\r\n\r\n\r\n\r\nThanks to those helping me seed. Leechers remember, the community depends on you. If nobody shares, the freebies go away. Remember, the only reason you can download this free movie is because others are generous enough to keep sharing it with you. If nobody shares, everybody loses, so even if its for an extra hour or two after you get it, remember, others want to see it too, and they can't without you.\r\n\r\n\r\nSEE MY OTHERS UPLOADS:                                                                                   \nhttp://thepiratebay.se/user/noriegaRJ\r\n\r\nAND SEE THIS ANOTHERS UPLOADS FROM &quot;HORiZON-ArtSubs&quot;:                                   \nhttp://thepiratebay.se/user/artsubs                                   \nhttp://thepiratebay.se/user/lletaif","torrent":{"xt":"urn:btih:b4cae2a4cd7d465c5ec1055b16665fe861647c97","amp;dn":"Mountains.May.Depart.2015.720p.BRRip.x264.AC3.HORiZON-ArtSubs","amp;tr":["udp%3A%2F%2Ftracker.leechers-paradise.org%3A6969","udp%3A%2F%2Fzer0day.ch%3A1337","udp%3A%2F%2Fopen.demonii.com%3A1337","udp%3A%2F%2Ftracker.coppersurfer.tk%3A6969","udp%3A%2F%2Fexodus.desync.com%3A6969"],"infoHash":"b4cae2a4cd7d465c5ec1055b16665fe861647c97","infoHashBuffer":{"type":"Buffer","data":[180,202,226,164,205,125,70,92,94,193,5,91,22,102,95,232,97,100,124,151]},"announce":[],"urlList":[]}}